<svg xmlns="http://www.w3.org/2000/svg" viewBox="0 0 48 48" id="smart-watch">
  <path fill="#1761b2" d="m15,12l1.826-10.348C16.995.697,17.825,0,18.796,0h10.409C30.175,0,31.005.697,31.174,1.652l1.826,10.348H15Z"></path>
  <path fill="#1c7bd1" d="m28.77.799l1.13,11.201h3.101l-1.826-10.348c-.169-.956-.999-1.652-1.97-1.652h-.7c.139.24.236.508.265.799Z"></path>
  <path fill="#1761b2" d="m15,36l1.826,10.348c.169.956.999,1.652,1.97,1.652h10.409c.97,0,1.801-.697,1.97-1.652l1.826-10.348H15Z"></path>
  <path fill="#1c7bd1" d="m28.77,47.201l1.13-11.201h3.101l-1.826,10.348c-.169.956-.999,1.652-1.97,1.652h-.7c.139-.24.236-.508.265-.799Z"></path>
  <rect width="30" height="30" x="9" y="9" fill="#0d3b8d" rx="6" ry="6"></rect>
  <rect width="22" height="22" x="13" y="13" fill="#6ee7ff" rx="2" ry="2"></rect>
  <path fill="#ff3b65" d="m26.692,25.213l2.692-2.699h0c1.488-1.492,1.488-3.906,0-5.397h0c-1.486-1.489-3.898-1.489-5.384,0h0s0,0,0,0c-1.486-1.489-3.898-1.489-5.384,0h0c-1.488,1.492-1.488,3.906,0,5.397h0s2.692,2.699,2.692,2.699l1.346,1.349c.743.745,1.949.745,2.692,0l1.346-1.349Z"></path>
  <path fill="#d82b50" d="m27,24c-3.866,0-7-3.134-7-7,0-.261.017-.518.045-.771-.521.183-1.013.471-1.429.888-1.488,1.491-1.488,3.906,0,5.397l2.692,2.699,1.346,1.349c.743.745,1.949.745,2.692,0l1.346-1.349,1.286-1.289c-.32.045-.645.076-.978.076Z" opacity=".75"></path>
  <path fill="#eff3f9" d="M26 32h-3c-.553 0-1-.448-1-1s.447-1 1-1h3c.553 0 1 .448 1 1s-.447 1-1 1zM20 32h-3c-.553 0-1-.448-1-1s.447-1 1-1h3c.553 0 1 .448 1 1s-.447 1-1 1z"></path>
  <circle cx="31" cy="31" r="1" fill="#eff3f9"></circle>
</svg>
